<svg xmlns="http://www.w3.org/2000/svg" viewBox="0 0 24 24"><path fill="#303c42" d="M21.946 23.277a18.526 18.526 0 0 1-1.947-8.247v-3.506c0-1.222.037-2.444.074-3.666.073-2.423.148-4.93-.076-7.402a.51.51 0 0 0-.543-.453.497.497 0 0 0-.42.326l-.003-.004-1.274 3.397C16.802 3.112 14.692 2 11.999 2c-2.631 0-4.705 1.061-5.69 1.679l-.825-3.3-.005.006a.495.495 0 0 0-.435-.383.512.512 0 0 0-.543.453c-.333 3.666-.502 7.39-.502 11.068v3.506c0 2.847-.673 5.699-1.946 8.248a.503.503 0 0 0 .446.724l19-.001a.5.5 0 0 0 .447-.723z"/><path fill="#5c6671" d="M3.289 23a19.535 19.535 0 0 0 1.71-7.97v-3.506c0-2.626.09-5.276.262-7.911l.252 1.009a.502.502 0 0 0 .798.27c.024-.019 2.402-1.891 5.688-1.891 3.271 0 5.664 1.872 5.688 1.891a.502.502 0 0 0 .78-.215l.658-1.754c.04 1.643-.003 3.292-.051 4.905a119.781 119.781 0 0 0-.075 3.696v3.506c0 2.735.589 5.474 1.71 7.971L3.289 23z"/><path d="M18.09 7.828a142.212 142.212 0 0 0-.064 3.696v3.506c0 2.735.507 5.474 1.472 7.971h1.21a19.546 19.546 0 0 1-1.71-7.971v-3.506c0-1.232.037-2.464.074-3.696.049-1.613.091-3.263.051-4.905l-.658 1.754a.499.499 0 0 1-.327.301c-.006.957-.023 1.91-.048 2.85z" opacity=".1"/><path fill="#fff" d="M4.499 23a22.246 22.246 0 0 0 1.472-7.97v-3.506c0-2.182.066-4.379.169-6.572-.048.015-.09.049-.141.049a.5.5 0 0 1-.485-.379l-.252-1.009a121.004 121.004 0 0 0-.263 7.911v3.506c0 2.736-.589 5.474-1.71 7.97h8.71-7.5z" opacity=".2"/><path fill="#303c42" d="m17.436 13.005-4 .5a.5.5 0 0 0-.291.143l-1.146 1.146-1.146-1.146a.5.5 0 0 0-.291-.143l-4-.5a.503.503 0 0 0-.563.496v2.5c0 1.879 1.511 6 6 6s6-4.121 6-6v-2.5a.501.501 0 0 0-.563-.496z"/><path fill="#fee8d7" d="M16.999 16.001c0 .992-.89 5-5 5s-5-4.008-5-5v-1.934l3.268.409 1.379 1.378a.5.5 0 0 0 .707 0l1.379-1.378 3.267-.408v1.933z"/><path d="M7.466 16.468v-1.934l3.268.409 1.379 1.378a.5.5 0 0 0 .707 0l1.379-1.378 2.801-.35v-.525l-3.268.409-1.379 1.378a.5.5 0 0 1-.707 0l-1.379-1.378-3.268-.409v1.933c0 .656.395 2.624 1.845 3.886-1.069-1.237-1.378-2.84-1.378-3.419z" opacity=".1"/><path fill="#303c42" d="M12.999 17.001h-2a.5.5 0 0 0 0 1h2a.5.5 0 0 0 0-1zm2.25-5c1.047 0 1.75-.402 1.75-1v-.5a.5.5 0 0 0-.598-.491l-2.5.5a.5.5 0 0 0-.402.49c0 .599.703 1.001 1.75 1.001zm-6.5 0c1.047 0 1.75-.402 1.75-1a.5.5 0 0 0-.402-.49l-2.5-.5a.502.502 0 0 0-.598.49v.5c0 .598.703 1 1.75 1z"/><linearGradient id="a" x1="1.213" x2="24.481" y1="16.561" y2="5.711" gradientTransform="matrix(1 0 0 -1 0 24)" gradientUnits="userSpaceOnUse"><stop offset="0" stop-color="#fff" stop-opacity=".2"/><stop offset="1" stop-color="#fff" stop-opacity="0"/></linearGradient><path fill="url(#a)" d="M21.946 23.277a18.526 18.526 0 0 1-1.947-8.247v-3.506c0-1.222.037-2.444.074-3.666.073-2.423.148-4.93-.076-7.402a.51.51 0 0 0-.543-.453.497.497 0 0 0-.42.326l-.003-.004-1.274 3.397C16.802 3.112 14.692 2 11.999 2c-2.631 0-4.705 1.061-5.69 1.679l-.825-3.3-.005.006a.495.495 0 0 0-.435-.383.512.512 0 0 0-.543.453c-.333 3.666-.502 7.39-.502 11.068v3.506c0 2.847-.673 5.699-1.946 8.248a.503.503 0 0 0 .446.724l19-.001a.5.5 0 0 0 .447-.723z"/></svg>