<svg xmlns="http://www.w3.org/2000/svg" viewBox="0 0 24 24"><path fill="#303c42" d="M23.819 18.901 21 10.914c-.034-6.306-3.743-9.209-7.07-9.842A1.496 1.496 0 0 0 12.5 0h-1c-.677 0-1.245.454-1.43 1.072-3.326.633-7.036 3.537-7.07 9.842L.181 18.9c-.12.341-.181.698-.181 1.059a3.155 3.155 0 0 0 2.475 3.102C4.395 23.489 7.606 24 12 24s7.605-.511 9.525-.939A3.154 3.154 0 0 0 24 19.959c0-.361-.061-.718-.181-1.058z"/><path fill="#596368" d="m19.996 10.883-.018-.039C19.748 9.827 18.646 8 16 8c-1.028 0-1.611.056-2.014.143C13.99 8.095 14 8.049 14 8V2.102c2.866.66 5.951 3.28 5.996 8.781zM11 1.5a.5.5 0 0 1 .5-.5h1a.5.5 0 0 1 .5.5V8a.5.5 0 0 1-.5.5h-1A.5.5 0 0 1 11 8V1.5zm-1 .602V8c0 .049.01.095.014.143C9.611 8.056 9.028 8 8 8c-2.646 0-3.748 1.827-3.978 2.844l-.018.039C4.049 5.382 7.134 2.762 10 2.102z"/><path fill="#fff" d="m19.969 10.814.009.03.018.039C19.952 5.382 16.867 2.762 14 2.102v.551c2.755.634 5.704 3.087 5.969 8.161zM12.5 1h-1a.5.5 0 0 0-.5.5v.551a.5.5 0 0 1 .5-.5h1a.5.5 0 0 1 .5.5V1.5a.5.5 0 0 0-.5-.5zm-8.469 9.814C4.296 5.74 7.245 3.287 10 2.652v-.551c-2.866.66-5.951 3.28-5.996 8.781l.018-.039.009-.029z" opacity=".2"/><path fill="#ced0d2" d="M10 12.725v-1.351C9.491 11.234 8.487 11 7.5 11c-1.24 0-1.5.815-1.5 1.5 0 .554 1.094 1 2 1 .588 0 1.502-.476 2-.775z"/><path fill="#454f55" d="M21.307 22.084c-1.87.418-5.004.916-9.307.916s-7.437-.498-9.307-.916a2.152 2.152 0 0 1-1.685-2.035l3.949-8.845a.546.546 0 0 0 .034-.106C5.007 11.013 5.439 9 8 9c1.651 0 1.987.15 2.257.271.301.135.567.229 1.243.229h1c.676 0 .941-.095 1.243-.229C14.013 9.15 14.349 9 16 9c2.535 0 2.992 2.015 3.01 2.098a.486.486 0 0 0 .034.106l3.949 8.845a2.154 2.154 0 0 1-1.686 2.035z"/><path fill="#303c42" d="M10.777 13.416A.499.499 0 0 0 11 13v-2a.502.502 0 0 0-.342-.475C10.594 10.504 9.063 10 7.5 10 5.657 10 5 11.291 5 12.5c0 1.364 1.79 2 3 2 1.119 0 2.611-.973 2.777-1.084zM16.5 10c-1.563 0-3.094.504-3.158.525A.502.502 0 0 0 13 11v2c0 .167.083.323.223.416.167.111 1.658 1.084 2.777 1.084 1.21 0 3-.636 3-2 0-1.209-.657-2.5-2.5-2.5z"/><path d="M19.043 11.204a.546.546 0 0 1-.034-.106C18.992 11.015 18.535 9 16 9c-1.651 0-1.987.15-2.257.271-.301.135-.567.229-1.243.229h-1c-.676 0-.941-.095-1.243-.229C9.987 9.15 9.651 9 8 9c-2.561 0-2.993 2.013-3.01 2.098a.486.486 0 0 1-.034.106l-3.949 8.845a2.152 2.152 0 0 0 1.222 1.868 2.294 2.294 0 0 1-.417-1.243l3.243-7.838C5.03 12.727 5 12.62 5 12.5c0-.963.429-1.968 1.531-2.341.412-.302.969-.534 1.762-.534 1.53 0 1.842.15 2.092.271.279.135.525.229 1.152.229h.927c.626 0 .872-.095 1.152-.229.25-.12.562-.271 2.092-.271.779 0 1.33.229 1.741.528C18.566 10.521 19 11.531 19 12.5c0 .12-.03.227-.056.336l3.243 7.838c-.017.467-.17.895-.417 1.243a2.154 2.154 0 0 0 1.222-1.868l-3.949-8.845z" opacity=".1"/><path fill="#454f55" d="M6 12.5c0-.685.26-1.5 1.5-1.5.987 0 1.991.234 2.5.374v1.351c-.498.3-1.412.775-2 .775-.906 0-2-.446-2-1zm10 1c-.588 0-1.502-.476-2-.775v-1.351c.509-.14 1.513-.374 2.5-.374 1.24 0 1.5.815 1.5 1.5 0 .554-1.094 1-2 1z"/><linearGradient id="a" x1="6.321" x2="9.868" y1="12.646" y2="10.992" gradientTransform="matrix(1 0 0 -1 0 24)" gradientUnits="userSpaceOnUse"><stop offset="0" stop-color="#fff" stop-opacity=".2"/><stop offset="1" stop-color="#fff" stop-opacity="0"/></linearGradient><path fill="url(#a)" d="M6 12.5c0-.685.26-1.5 1.5-1.5.987 0 1.991.234 2.5.374v1.351c-.498.3-1.412.775-2 .775-.906 0-2-.446-2-1z"/><linearGradient id="b" x1="14.067" x2="17.822" y1="12.771" y2="11.02" gradientTransform="matrix(1 0 0 -1 0 24)" gradientUnits="userSpaceOnUse"><stop offset="0" stop-color="#fff" stop-opacity=".2"/><stop offset="1" stop-color="#fff" stop-opacity="0"/></linearGradient><path fill="url(#b)" d="M16 13.5c-.588 0-1.502-.476-2-.775v-1.351c.509-.14 1.513-.374 2.5-.374 1.24 0 1.5.815 1.5 1.5 0 .554-1.094 1-2 1z"/><linearGradient id="c" x1="8.163" x2="22.326" y1="16.62" y2="2.457" gradientTransform="matrix(1 0 0 -1 0 24)" gradientUnits="userSpaceOnUse"><stop offset="0" stop-opacity=".1"/><stop offset="1" stop-opacity="0"/></linearGradient><path fill="url(#c)" d="M10 12.725v-1.351C9.491 11.234 8.487 11 7.5 11c-1.24 0-1.5.815-1.5 1.5 0 .554 1.094 1 2 1 .588 0 1.502-.476 2-.775zm9.043-1.521a.546.546 0 0 1-.034-.106C18.992 11.015 18.535 9 16 9c-1.651 0-1.987.15-2.257.271-.301.135-.567.229-1.243.229h-1c-.676 0-.941-.095-1.243-.229C9.987 9.15 9.651 9 8 9c-2.561 0-2.993 2.013-3.01 2.098a.486.486 0 0 1-.034.106l-.195.436.295.295C5.24 10.921 5.944 10 7.5 10c1.563 0 3.094.504 3.158.525.204.069.342.26.342.475v2a.499.499 0 0 1-.223.416C10.611 13.527 9.119 14.5 8 14.5a4.09 4.09 0 0 1-.404-.025l8.372 8.372c2.308-.179 4.104-.487 5.339-.763a2.152 2.152 0 0 0 1.685-2.035l-3.949-8.845zM16 14.5c-1.119 0-2.611-.973-2.777-1.084A.499.499 0 0 1 13 13v-2c0-.215.138-.406.342-.475.064-.021 1.595-.525 3.158-.525 1.843 0 2.5 1.291 2.5 2.5 0 1.364-1.79 2-3 2zm.5-3.5c-.987 0-1.991.234-2.5.374v1.351c.498.3 1.412.775 2 .775.906 0 2-.446 2-1 0-.685-.26-1.5-1.5-1.5z"/><path fill="#303c42" d="M16 19.5c-.039 0-.071.018-.109.022L13.5 16.334V15.5c0-.827-.673-1.5-1.5-1.5s-1.5.673-1.5 1.5v.834l-2.391 3.188c-.038-.004-.07-.022-.109-.022a1.001 1.001 0 0 0 0 2 .987.987 0 0 0 .846-.5h6.307c.175.293.481.5.846.5a1.001 1.001 0 0 0 .001-2zm-4.5-4a.5.5 0 0 1 1 0v.5h-1v-.5zm-1 4.5H9l1.5-2v2zm1 0v-3h1v3h-1zm2-2 1.5 2h-1.5v-2z"/><linearGradient id="d" x1="2.492" x2="24.568" y1="14.834" y2="4.54" gradientTransform="matrix(1 0 0 -1 0 24)" gradientUnits="userSpaceOnUse"><stop offset="0" stop-color="#fff" stop-opacity=".2"/><stop offset="1" stop-color="#fff" stop-opacity="0"/></linearGradient><path fill="url(#d)" d="M23.819 18.901 21 10.914c-.034-6.306-3.743-9.209-7.07-9.842A1.496 1.496 0 0 0 12.5 0h-1c-.677 0-1.245.454-1.43 1.072-3.326.633-7.036 3.537-7.07 9.842L.181 18.9c-.12.341-.181.698-.181 1.059a3.155 3.155 0 0 0 2.475 3.102C4.395 23.489 7.606 24 12 24s7.605-.511 9.525-.939A3.154 3.154 0 0 0 24 19.959c0-.361-.061-.718-.181-1.058z"/></svg>