<svg xmlns="http://www.w3.org/2000/svg" viewBox="0 0 24 24"><path fill="#303c42" d="M21.497 13.023c-.036-2.87-.391-4.251-.497-4.603-.013-2.266-.593-4.346-1.597-5.716C18.043.847 14.612 0 12 0S5.957.847 4.597 2.705C3.594 4.075 3.014 6.155 3 8.421c-.106.352-.461 1.732-.497 4.603C.925 13.177 0 14.078 0 15.5c0 1.891 1.9 3.838 3.014 4.363C3.135 21.472 4.068 24 7 24c2.117 0 3.294-.669 4.073-1.112.381-.217.683-.388.927-.388s.545.171.927.388C13.706 23.331 14.883 24 17 24c2.932 0 3.865-2.528 3.986-4.137C22.1 19.338 24 17.391 24 15.5c0-1.422-.925-2.323-2.503-2.477z"/><path fill="#f2f2f2" d="M20.5 19a.5.5 0 0 0-.5.5c0 .143-.034 3.5-3 3.5-1.853 0-2.81-.544-3.579-.981-.49-.278-.913-.519-1.421-.519s-.931.24-1.421.519C9.81 22.456 8.853 23 7 23c-2.966 0-3-3.357-3-3.5 0-.276-.19-.497-.467-.497C3.037 18.896 1 17.127 1 15.5c0-.992.669-1.496 1.986-1.499.293.075 1.037 1.129 1.563 2.217a.502.502 0 0 0 .668.232.499.499 0 0 0 .232-.668c-.414-.856-1.158-2.177-1.945-2.619.023-2.429.276-3.76.399-4.254C6.289 8.243 8.452 8 12 8s5.711.243 8.095.909c.123.496.376 1.827.399 4.254-.787.443-1.53 1.763-1.945 2.619a.5.5 0 0 0 .9.436c.525-1.084 1.265-2.135 1.561-2.217 1.32.002 1.99.507 1.99 1.499 0 1.627-2.037 3.396-2.5 3.5z"/><path d="M22.354 14.293c.113.206.177.449.177.738 0 1.627-2.037 3.396-2.5 3.5a.5.5 0 0 0-.5.5c0 .143-.034 3.5-3 3.5-1.853 0-2.81-.544-3.579-.981-.49-.278-.913-.519-1.421-.519s-.931.24-1.421.519c-.769.438-1.727.981-3.579.981-.744 0-1.303-.212-1.724-.531.443.563 1.126 1 2.193 1 1.853 0 2.81-.544 3.579-.981.49-.278.913-.519 1.421-.519s.931.24 1.421.519c.769.437 1.726.981 3.579.981 2.966 0 3-3.357 3-3.5a.5.5 0 0 1 .5-.5c.463-.104 2.5-1.873 2.5-3.5 0-.561-.222-.96-.646-1.207z" opacity=".1"/><path fill="#303c42" d="M6.5 13.5c4.237 0 4.497-3.934 4.5-3.974A.5.5 0 0 0 10.506 9c-.153-.003-3.697-.037-5.185.533a.5.5 0 0 0-.321.483c.005.143.133 3.484 1.5 3.484z"/><path fill="#5c6671" d="M9.912 10.001c-.214.872-.933 2.506-3.316 2.525-.226-.177-.487-1.292-.571-2.167 1.025-.263 2.803-.343 3.887-.358z"/><path fill="#303c42" d="M8.554 20.003c-.497-.054-1.07-.217-1.18-.335l-.089-.108C7.031 19.243 6.775 19 6 19c-.607 0-1 .393-1 1 0 1.805 1.398 2 2 2 1.582 0 2-.981 2-1.5a.5.5 0 0 0-.446-.497z"/><path fill="#5c6671" d="M7 21c-.83 0-1-.399-1.061-.994 0 0 .018-.006.061-.006.356 0 .378.028.503.185.038.047.077.097.123.147.24.27.682.436 1.08.535-.148.076-.371.133-.706.133z"/><path fill="#303c42" d="M17.5 13.5c1.367 0 1.495-3.341 1.5-3.483a.5.5 0 0 0-.321-.483c-1.488-.57-5.032-.535-5.185-.533a.503.503 0 0 0-.494.526c.003.039.263 3.973 4.5 3.973z"/><path fill="#5c6671" d="M17.975 10.359c-.083.874-.333 1.986-.475 2.141-2.455 0-3.192-1.629-3.411-2.499 1.085.015 2.862.095 3.886.358z"/><linearGradient id="a" x1="6.077" x2="9.199" y1="13.752" y2="12.296" gradientTransform="matrix(1 0 0 -1 0 24)" gradientUnits="userSpaceOnUse"><stop offset="0" stop-color="#fff" stop-opacity=".2"/><stop offset="1" stop-color="#fff" stop-opacity="0"/></linearGradient><path fill="url(#a)" d="M9.912 10.001c-.214.872-.933 2.506-3.316 2.525-.226-.177-.487-1.292-.571-2.167 1.025-.263 2.803-.343 3.887-.358z"/><linearGradient id="b" x1="14.106" x2="17.875" y1="14.036" y2="12.279" gradientTransform="matrix(1 0 0 -1 0 24)" gradientUnits="userSpaceOnUse"><stop offset="0" stop-color="#fff" stop-opacity=".2"/><stop offset="1" stop-color="#fff" stop-opacity="0"/></linearGradient><path fill="url(#b)" d="M17.975 10.359c-.083.874-.333 1.986-.475 2.141-2.455 0-3.192-1.629-3.411-2.499 1.085.015 2.862.095 3.886.358z"/><path fill="#303c42" d="M18 19c-.775 0-1.031.243-1.285.56l-.089.108c-.11.118-.683.281-1.18.335A.5.5 0 0 0 15 20.5c0 .519.418 1.5 2 1.5.602 0 2-.195 2-2 0-.607-.393-1-1-1z"/><path fill="#5c6671" d="M17 21c-.336 0-.559-.057-.708-.133.399-.1.841-.265 1.082-.535.045-.051.085-.101.123-.147.125-.157.147-.185.503-.185 0 .601-.17 1-1 1z"/><path fill="#f2f2f2" d="M5.403 3.295C6.507 1.788 9.557 1 12 1s5.493.788 6.597 2.295c.797 1.089 1.287 2.721 1.383 4.546C17.649 7.228 15.46 7 12 7s-5.649.228-7.98.841c.096-1.825.587-3.457 1.383-4.546z"/><path fill="#303c42" d="M18 17.5a.5.5 0 0 0-.5-.5c-.919 0-1.5-.588-2.171-1.268C14.527 14.92 13.619 14 12 14s-2.527.92-3.329 1.732C8 16.412 7.419 17 6.5 17a.5.5 0 0 0 0 1c1.337 0 2.158-.832 2.883-1.565C10.111 15.697 10.799 15 12 15s1.889.697 2.617 1.435C15.342 17.168 16.163 18 17.5 18a.5.5 0 0 0 .5-.5z"/><path fill="#303c42" d="M12 17a.5.5 0 0 0-.5.5v3a.5.5 0 0 0 1 0v-3a.5.5 0 0 0-.5-.5zm1.5 1a.5.5 0 0 0-.5.5v2a.5.5 0 0 0 1 0v-2a.5.5 0 0 0-.5-.5zm-3 0a.5.5 0 0 0-.5.5v2a.5.5 0 0 0 1 0v-2a.5.5 0 0 0-.5-.5z"/><linearGradient id="c" x1="1.981" x2="23.211" y1="15.97" y2="6.071" gradientTransform="matrix(1 0 0 -1 0 24)" gradientUnits="userSpaceOnUse"><stop offset="0" stop-color="#fff" stop-opacity=".2"/><stop offset="1" stop-color="#fff" stop-opacity="0"/></linearGradient><path fill="url(#c)" d="M21.497 13.023c-.036-2.87-.391-4.251-.497-4.603-.013-2.266-.593-4.346-1.597-5.716C18.043.847 14.612 0 12 0S5.957.847 4.597 2.705C3.594 4.075 3.014 6.155 3 8.421c-.106.352-.461 1.732-.497 4.603C.925 13.177 0 14.078 0 15.5c0 1.891 1.9 3.838 3.014 4.363C3.135 21.472 4.068 24 7 24c2.117 0 3.294-.669 4.073-1.112.381-.217.683-.388.927-.388s.545.171.927.388C13.706 23.331 14.883 24 17 24c2.932 0 3.865-2.528 3.986-4.137C22.1 19.338 24 17.391 24 15.5c0-1.422-.925-2.323-2.503-2.477z"/></svg>