<svg xmlns="http://www.w3.org/2000/svg" width="48" height="48"><g transform="translate(0 -1004.362)"><circle cx="24" cy="1028.362" r="24" fill="#1d67b1"/><path fill="#154082" d="M25.914 1052.276a24 24 0 0 0 2.166-.264 24 24 0 0 0 2.34-.525 24 24 0 0 0 2.277-.756 24 24 0 0 0 2.19-.98 24 24 0 0 0 2.08-1.194 24 24 0 0 0 1.951-1.394 24 24 0 0 0 1.803-1.584 24 24 0 0 0 1.634-1.756 24 24 0 0 0 1.454-1.91 24 24 0 0 0 1.254-2.045 24 24 0 0 0 1.042-2.16 24 24 0 0 0 .823-2.254 24 24 0 0 0 .593-2.324 24 24 0 0 0 .36-2.372 24 24 0 0 0 .025-.49L37 1019.362l-.5-.5H35v1l-1-1h-2v1l-1-1h-2v1l-1-1h-2v1l-1-1h-2v1l-1-1h-2v1l-1-1h-2v1l-1-1h-2v1l-1-1h-1.5l-.5.5v1.5l1 1h-1v2l1 1h-1v2l1 1h-1v2l1 1h-1v2l1 1h-1v2l1 1h-1v.5l.5.5 14.414 14.414z" color="#000"/><path fill="#fff" d="m11.5 1018.862-.5.5v1.5h1v-1h1v-1h-1.5Zm2.5 0v1h2v-1h-2Zm3 0v1h2v-1h-2zm3 0v1h2v-1h-2zm3 0v1h2v-1h-2zm3 0v1h2v-1h-2zm3 0v1h2v-1h-2zm3 0v1h2v-1h-2zm3 0v1h1v1h1v-1.5l-.5-.5H35Zm-7.531 2.969a.5.5 0 0 0-.125.031.5.5 0 0 0-.282.25l-7 11.969a.504.504 0 1 0 .875.5l7-11.969a.5.5 0 0 0-.468-.781Zm-16.469.031v2h1v-2h-1zm25 0v2h1v-2h-1zm-17.5 2a.488.488 0 0 0-.344.156l-3.843 3.875c-.06.025-.108.076-.157.125a.476.476 0 0 0 0 .688c.05.049.096.1.156.125l3.844 3.875a.476.476 0 0 0 .688 0 .476.476 0 0 0 0-.688l-3.657-3.656 3.657-3.656a.476.476 0 0 0 0-.688.488.488 0 0 0-.344-.156Zm11 0a.488.488 0 0 0-.344.156.476.476 0 0 0 0 .688l3.657 3.656-3.657 3.656a.476.476 0 0 0 0 .688.476.476 0 0 0 .688 0l3.843-3.875c.06-.025.108-.076.157-.125a.476.476 0 0 0 0-.688c-.05-.049-.096-.1-.157-.125l-3.843-3.875a.488.488 0 0 0-.344-.156Zm-18.5 1v2h1v-2h-1zm25 0v2h1v-2h-1zm-25 3v2h1v-2h-1zm25 0v2h1v-2h-1zm-25 3v2h1v-2h-1zm25 0v2h1v-2h-1zm-25 3v2h1v-2h-1zm25 0v2h1v-2h-1zm-25 3v.5l.5.5H13v-1h-2Zm3 0v1h2v-1h-2zm3 0v1h2v-1h-2zm3 0v1h2v-1h-2zm3 0v1h2v-1h-2zm3 0v1h2v-1h-2zm3 0v1h2v-1h-2zm3 0v1h2v-1h-2zm3 0v1h1.5l.5-.5v-.5h-2z" color="#000" overflow="visible"/></g></svg>