<svg xmlns="http://www.w3.org/2000/svg" viewBox="0 0 24 24"><path fill="#303c42" d="M12 0C7.738 0 4 3.505 4 7.5V13c0 2.943 1.447 5.704 2.07 6.755C6.77 20.936 9.198 24 12 24s5.23-3.064 5.93-4.245C18.553 18.704 20 15.943 20 13V7.5C20 3.505 16.262 0 12 0z"/><path fill="#e6e6e6" d="M16.5 14c-1.122 0-2.339-1.572-2.892-2.455.282-.248.814-.542 1.296-.808.466-.258.947-.524 1.382-.827.28-.196.799-.346 1.3-.491.465-.134.98-.283 1.414-.508v1.588C19 11.544 17.944 14 16.5 14zM5 8.912c.434.225.949.374 1.414.508.501.145 1.02.295 1.3.491.435.303.916.569 1.382.827.482.266 1.014.56 1.296.808C9.839 12.428 8.622 14 7.5 14 6.056 14 5 11.544 5 10.5V8.912z"/><path fill="#ccc" d="M16.5 14c-1.122 0-2.339-1.572-2.892-2.455.282-.248.814-.542 1.296-.808.466-.258.947-.524 1.382-.827.28-.196.799-.346 1.3-.491.465-.134.98-.283 1.414-.508v1.588C19 11.544 17.944 14 16.5 14zM5 8.912c.434.225.949.374 1.414.508.501.145 1.02.295 1.3.491.435.303.916.569 1.382.827.482.266 1.014.56 1.296.808C9.839 12.428 8.622 14 7.5 14 6.056 14 5 11.544 5 10.5V8.912z"/><linearGradient id="a" x1="14.354" x2="18.646" y1="14.055" y2="12.054" gradientTransform="matrix(1 0 0 -1 0 24)" gradientUnits="userSpaceOnUse"><stop offset="0" stop-color="#fff" stop-opacity=".5"/><stop offset="1" stop-color="#fff" stop-opacity="0"/></linearGradient><path fill="url(#a)" d="M16.5 14c-1.122 0-2.339-1.572-2.892-2.455.282-.248.814-.542 1.296-.808.466-.258.947-.524 1.382-.827.28-.196.799-.346 1.3-.491.465-.134.98-.283 1.414-.508v1.588C19 11.544 17.944 14 16.5 14z"/><linearGradient id="b" x1="4.278" x2="9.716" y1="13.539" y2="11.004" gradientTransform="matrix(1 0 0 -1 0 24)" gradientUnits="userSpaceOnUse"><stop offset="0" stop-color="#fff" stop-opacity=".5"/><stop offset="1" stop-color="#fff" stop-opacity="0"/></linearGradient><path fill="url(#b)" d="M5 8.912c.434.225.949.374 1.414.508.501.145 1.02.295 1.3.491.435.303.916.569 1.382.827.482.266 1.014.56 1.296.808C9.839 12.428 8.622 14 7.5 14 6.056 14 5 11.544 5 10.5V8.912z"/><linearGradient id="c" x1="15.533" x2="18.516" y1="14.38" y2="11.397" gradientTransform="matrix(1 0 0 -1 0 24)" gradientUnits="userSpaceOnUse"><stop offset="0" stop-color="#fff" stop-opacity=".5"/><stop offset=".93" stop-color="#fff" stop-opacity=".035"/><stop offset="1" stop-color="#fff" stop-opacity="0"/></linearGradient><path fill="url(#c)" d="M16.5 14c-1.122 0-2.339-1.572-2.892-2.455.282-.248.814-.542 1.296-.808.466-.258.947-.524 1.382-.827.28-.196.799-.346 1.3-.491.465-.134.98-.283 1.414-.508v1.588C19 11.544 17.944 14 16.5 14z"/><linearGradient id="d" x1="4.888" x2="9.064" y1="14.976" y2="10.8" gradientTransform="matrix(1 0 0 -1 0 24)" gradientUnits="userSpaceOnUse"><stop offset="0" stop-color="#fff" stop-opacity=".5"/><stop offset=".93" stop-color="#fff" stop-opacity=".035"/><stop offset="1" stop-color="#fff" stop-opacity="0"/></linearGradient><path fill="url(#d)" d="M5 8.912c.434.225.949.374 1.414.508.501.145 1.02.295 1.3.491.435.303.916.569 1.382.827.482.266 1.014.56 1.296.808C9.839 12.428 8.622 14 7.5 14 6.056 14 5 11.544 5 10.5V8.912z"/><path fill="#e53935" d="M16.409 8.149c.111.153.246.312.395.461a4.978 4.978 0 0 0-.828.328c.138-.247.283-.511.433-.789zm-2.184 1.823c-.72.4-1.326.767-1.614 1.224l-.111-.289v-4.48c1.005.49 2.417.837 2.508.859.227.055.447.096.661.128a64.76 64.76 0 0 1-1.444 2.558zm-2.725.935-.111.289c-.287-.457-.894-.825-1.614-1.224-.191-.32-.8-1.35-1.444-2.559.214-.031.434-.073.661-.128.092-.022 1.504-.369 2.508-.859v4.481zM8.024 8.938a5.048 5.048 0 0 0-.828-.328c.149-.15.284-.309.395-.461.15.278.295.542.433.789zm2.778 3.784L9.36 16.473a8.612 8.612 0 0 0-1.246-1.564c1.125-.304 2.089-1.366 2.688-2.187zM12 12.394l1.856 4.826c-.481-.117-1.11-.22-1.856-.22s-1.375.103-1.856.22L12 12.394zm1.198.328c.599.821 1.562 1.882 2.688 2.187a8.612 8.612 0 0 0-1.246 1.564l-1.442-3.751zm4.765-4.464c-.346-.159-1.041-.953-.98-1.205l.001-.003c.448-.885.869-1.799 1.148-2.583.55.917.868 1.955.868 3.033 0 .332-.407.548-1.037.758zm-.569-4.795c-.182.776-.676 1.892-1.23 2.994-.653.052-3.08-.761-3.664-1.155V1.025a7.3 7.3 0 0 1 4.894 2.438zM11.5 1.025v4.277c-.583.393-3.009 1.194-3.664 1.155-.554-1.102-1.048-2.217-1.23-2.994A7.3 7.3 0 0 1 11.5 1.025zM5.868 4.467c.279.783.699 1.695 1.146 2.579l.001.002c.065.262-.658 1.083-.96 1.216C5.415 8.052 5 7.835 5 7.5c0-1.079.318-2.116.868-3.033zm.661 10.318-1.066 1.103a10.641 10.641 0 0 1-.437-2.454c.394.584.896 1.082 1.503 1.351zm-.702 2.166 1.434-1.483c.558.471 1.536 1.791 1.607 2.286l-1.043 2.711a9.655 9.655 0 0 1-.894-1.219 15.923 15.923 0 0 1-1.104-2.295zm2.758 4.323 1.104-2.87C9.975 18.292 10.825 18 12 18s2.025.292 2.312.405l1.104 2.87C14.475 22.18 13.261 23 12 23s-2.475-.82-3.415-1.726zm8.485-2.029a9.612 9.612 0 0 1-.894 1.219l-1.038-2.699c.072-.511 1.046-1.827 1.602-2.298l1.434 1.483a16.032 16.032 0 0 1-1.104 2.295zm1.466-3.357-1.066-1.103c.607-.269 1.109-.767 1.502-1.351a10.588 10.588 0 0 1-.436 2.454z"/><linearGradient id="e" x1="3.218" x2="19.984" y1="16.285" y2="8.467" gradientTransform="matrix(1 0 0 -1 0 24)" gradientUnits="userSpaceOnUse"><stop offset="0" stop-color="#fff" stop-opacity=".2"/><stop offset="1" stop-color="#fff" stop-opacity="0"/></linearGradient><path fill="url(#e)" d="M12 0C7.738 0 4 3.505 4 7.5V13c0 2.943 1.447 5.704 2.07 6.755C6.77 20.936 9.198 24 12 24s5.23-3.064 5.93-4.245C18.553 18.704 20 15.943 20 13V7.5C20 3.505 16.262 0 12 0z"/></svg>