<svg xmlns="http://www.w3.org/2000/svg" enable-background="new 0 0 24 24" viewBox="0 0 24 24"><path fill="#303c42" d="M20.58 9.415a1.45 1.45 0 0 0-.58-.337c-.011-1.397-.14-4.925-1.146-5.931C18.115 2.408 15.439 0 12 0S5.885 2.408 5.146 3.146C4.139 4.152 4.01 7.68 4 9.077a1.45 1.45 0 0 0-.58.337C3.229 9.6 3 9.939 3 10.5c0 1.044.482 5.846.503 6.05a.5.5 0 0 0 .273.397l.72.36c-.008 1.219.063 3.458.65 4.046.119.119.268.306.441.522C6.269 22.722 7.297 24 8.5 24c.836 0 1.479-.368 1.87-.677.268-.211.588-.323.926-.323h1.408c.338 0 .658.112.926.323.392.309 1.034.677 1.87.677 1.203 0 2.231-1.278 2.912-2.124.174-.216.322-.403.441-.522.588-.588.658-2.827.65-4.046l.72-.36a.498.498 0 0 0 .273-.397c.021-.204.503-5.006.503-6.05.001-.562-.228-.901-.419-1.086z"/><path fill="#d32f2f" d="M14.868 1.644c-.865 2.365-1.111 2.374-2.562 2.357L12 4l-.306.001c-1.432.007-1.693.008-2.562-2.357C9.99 1.274 10.956 1 12 1s2.01.274 2.868.644z"/><path fill="#fff" d="M12 1.5c.978 0 1.885.245 2.701.579.055-.143.106-.271.167-.435C14.01 1.274 13.044 1 12 1s-2.01.274-2.867.644c.06.165.112.293.168.435.815-.334 1.721-.579 2.699-.579z" enable-background="new" opacity=".2"/><path fill="#ffca28" d="M8.232 2.086c.984 2.615 1.568 2.916 3.363 2.916h.105L12 5l.3.001h.105c1.795 0 2.379-.301 3.363-2.916a11.61 11.61 0 0 1 2.378 1.768c.278.278.482 1.051.621 1.994l-1.609 3.219C15.844 9.37 12.92 10 12 10s-3.844-.63-5.158-.934L5.233 5.847c.139-.943.343-1.715.621-1.994a11.588 11.588 0 0 1 2.378-1.767z"/><path fill="#bbdefb" d="M17.446 10.913c-.146.04-.429.087-.946.087-.934 0-1.462-.192-1.739-.398a82.463 82.463 0 0 0 2.409-.513l.276.824zM6.831 10.089c.529.12 1.454.326 2.403.511-.279.21-.805.4-1.734.4-.515 0-.797-.046-.944-.087l.275-.824z"/><path fill="#ffca28" d="M4.113 10.136c.112-.112.31-.136.37-.136h.001a.498.498 0 0 0 .515-.505c-.005-.537.011-1.154.048-1.781l.912 1.824-.414 1.253a.68.68 0 0 0 .058.646c.25.39.834.563 1.897.563 1.882 0 2.582-.68 2.843-1.196.679.115 1.286.196 1.657.196s.978-.081 1.657-.196c.261.516.961 1.196 2.843 1.196 1.062 0 1.647-.173 1.896-.562.152-.238.13-.49.078-.596l-.435-1.304.912-1.824c.038.626.053 1.244.049 1.781a.503.503 0 0 0 .506.504h.004c.067 0 .264.024.376.136.03.029.114.114.114.365 0 .299-.045.953-.107 1.719-.179.125-.36.249-.521.39-3.562 2.794-4.527 5.38-4.78 6.391H9.408c-.254-1.011-1.219-3.596-4.78-6.391-.161-.141-.342-.265-.521-.39C4.045 11.453 4 10.799 4 10.5c0-.251.085-.336.113-.364zM16.514 19.28l-.514.513-.459-.459c.107-.457.464-1.604 1.581-3.078a13.223 13.223 0 0 0-.608 3.024zM7.487 19.28a13.17 13.17 0 0 0-.609-3.023c1.116 1.474 1.474 2.621 1.581 3.078L8 19.793l-.513-.513z"/><path fill="#d32f2f" d="m5.224 16.553-.753-.376c-.047-.474-.147-1.497-.243-2.557 1.872 1.908 2.214 5.117 2.263 5.773l-.645 1.233c-.218-.324-.376-1.953-.346-3.617a.5.5 0 0 0-.276-.456zM15.5 23c-.549 0-.983-.251-1.251-.462A2.503 2.503 0 0 0 12.704 22h-1.408c-.557 0-1.105.191-1.545.538-.268.211-.702.462-1.251.462-.652 0-1.428-.884-1.961-1.539l.589-1.126.519.519a.5.5 0 0 0 .707 0L9.207 20h5.586l.854.854a.5.5 0 0 0 .707 0l.519-.519.589 1.126C16.928 22.116 16.153 23 15.5 23z"/><path d="M15.5 22.5c-.549 0-.983-.251-1.251-.462a2.503 2.503 0 0 0-1.545-.538h-1.408c-.557 0-1.105.191-1.545.538-.268.211-.702.462-1.251.462-.59 0-1.28-.723-1.801-1.346l-.16.307C7.072 22.116 7.848 23 8.5 23c.549 0 .983-.251 1.251-.462A2.503 2.503 0 0 1 11.296 22h1.408c.557 0 1.105.191 1.545.538.268.211.702.462 1.251.462.652 0 1.428-.884 1.961-1.539l-.16-.307c-.52.623-1.211 1.346-1.801 1.346zM18.146 3.854c-.18-.18-.666-.63-1.359-1.12.426.377.725.694.859.844.278.314.482 1.183.621 2.245L16.791 9.15l.367-.083 1.609-3.219c-.138-.944-.342-1.716-.621-1.994z" enable-background="new" opacity=".1"/><path fill="#fff" d="M19.887 10.136c-.112-.112-.309-.136-.376-.136h-.004c-.006 0-.011-.003-.017-.003a.91.91 0 0 1 .01.127c0 .312-.045.995-.107 1.796-.179.131-.36.26-.521.407-3.562 2.918-4.527 5.618-4.78 6.674h.5c.254-1.011 1.219-3.596 4.78-6.391.161-.141.342-.265.521-.39.062-.767.107-1.421.107-1.72 0-.251-.084-.336-.113-.364z" enable-background="new" opacity=".2"/><path d="M7.146 20.354h.002l-.02-.02v.001zM5.837 3.854c.18-.18.666-.63 1.359-1.12a10.73 10.73 0 0 0-.859.844c-.278.314-.482 1.183-.621 2.245L7.193 9.15l-.367-.083-1.609-3.219c.138-.944.341-1.716.62-1.994z" enable-background="new" opacity=".1"/><path fill="#fff" d="M4.097 10.136c.112-.112.308-.136.376-.136h.004c.006 0 .011-.003.017-.003a.91.91 0 0 0-.01.127c0 .312.045.995.107 1.796.179.131.36.26.521.407 3.562 2.918 4.527 5.618 4.78 6.674h-.5c-.254-1.011-1.219-3.596-4.78-6.391-.161-.141-.342-.265-.521-.39-.062-.767-.107-1.421-.107-1.719-.001-.252.084-.337.113-.365z" enable-background="new" opacity=".2"/><path fill="#d32f2f" d="M18.276 16.053a.502.502 0 0 0-.276.457c.03 1.673-.13 3.313-.345 3.619l-.647-1.236c.049-.656.391-3.865 2.263-5.773-.096 1.06-.196 2.083-.243 2.557l-.752.376z"/><path d="m16.514 19.28-.514.513-.459-.459c.107-.457.464-1.604 1.581-3.078a13.223 13.223 0 0 0-.608 3.024zM18.276 16.053a.502.502 0 0 0-.276.457c.03 1.673-.13 3.313-.345 3.619l-.647-1.236c.049-.656.391-3.865 2.263-5.773-.096 1.06-.196 2.083-.243 2.557l-.752.376z" enable-background="new" opacity=".1"/><linearGradient id="a" x1="2.695" x2="21.071" y1="15.84" y2="7.271" gradientTransform="matrix(1 0 0 -1 0 24)" gradientUnits="userSpaceOnUse"><stop offset="0" stop-color="#fff" stop-opacity=".2"/><stop offset="1" stop-color="#fff" stop-opacity="0"/></linearGradient><path fill="url(#a)" d="M20.58 9.415a1.45 1.45 0 0 0-.58-.337c-.011-1.397-.14-4.925-1.146-5.931C18.115 2.408 15.439 0 12 0S5.885 2.408 5.146 3.146C4.139 4.152 4.01 7.68 4 9.077a1.45 1.45 0 0 0-.58.337C3.229 9.6 3 9.939 3 10.5c0 1.044.482 5.846.503 6.05a.5.5 0 0 0 .273.397l.72.36c-.008 1.219.063 3.458.65 4.046.119.119.268.306.441.522C6.269 22.722 7.297 24 8.5 24c.836 0 1.479-.368 1.87-.677.268-.211.588-.323.926-.323h1.408c.338 0 .658.112.926.323.392.309 1.034.677 1.87.677 1.203 0 2.231-1.278 2.912-2.124.174-.216.322-.403.441-.522.588-.588.658-2.827.65-4.046l.72-.36a.498.498 0 0 0 .273-.397c.021-.204.503-5.006.503-6.05.001-.562-.228-.901-.419-1.086z"/></svg>