<svg xmlns="http://www.w3.org/2000/svg" viewBox="0 0 24 24"><path fill="#303c42" d="M20.776 2.441C19.211 1.529 15.99 0 12 0S4.789 1.529 3.224 2.441A2.493 2.493 0 0 0 2 4.592V13c0 3.899 4.516 9.365 9.242 9.924.143.456.298.775.31.799a.503.503 0 0 0 .895.001 6.07 6.07 0 0 0 .31-.799C17.484 22.365 22 16.899 22 13V4.592c0-.887-.469-1.71-1.224-2.151z"/><path fill="#fafafa" d="M21 13c0 3.343-3.941 8.174-8.021 8.887.013-.127.021-.257.021-.387 0-1.065-.231-1.699-.421-2.039l.369-.737A.503.503 0 0 0 12.5 18h-1a.5.5 0 0 0-.447.723l.369.737c-.19.34-.421.974-.421 2.039 0 .13.008.26.021.387C6.941 21.174 3 16.343 3 13V4.592c0-.532.279-1.025.727-1.287C5.205 2.444 8.245 1 12 1s6.795 1.444 8.272 2.305c.449.262.728.755.728 1.287V13z"/><path fill="#303c42" d="M6.146 8.646a.504.504 0 0 0 0 .708C6.212 9.42 6.827 10 8 10s1.788-.58 1.854-.646a.504.504 0 0 0 0-.708C9.788 8.58 9.173 8 8 8s-1.788.58-1.854.646zm8 0a.504.504 0 0 0 0 .708c.066.066.681.646 1.854.646s1.788-.58 1.854-.646a.504.504 0 0 0 0-.708C17.788 8.58 17.173 8 16 8s-1.788.58-1.854.646zM4.268 6.935a.507.507 0 0 0 .673-.199C4.958 6.705 5.38 6 7 6c1.72 0 3.087 1.782 3.101 1.801a.5.5 0 0 0 .8-.601c-.067-.09-1.675-2.2-3.9-2.2-2.244 0-2.882 1.146-2.947 1.276a.493.493 0 0 0 .214.659zM13.5 8a.5.5 0 0 0 .4-.199C13.913 7.782 15.28 6 17 6c1.598 0 2.03.687 2.058.733a.5.5 0 0 0 .89-.457C19.882 6.146 19.244 5 17 5c-2.225 0-3.833 2.11-3.9 2.2a.498.498 0 0 0 .4.8z"/><path fill="#303c42" d="M18.655 9.644a.504.504 0 0 0-.015.704c.015.015.36.392.36 1.152 0 .685-.26 1.5-1.5 1.5-.865 0-1.768-.443-1.777-.447a.5.5 0 0 0-.446.895c.041.02.932.456 1.923.536L16.191 16h-2.382l-.718-1.435c.144-.139.262-.285.346-.404.04-.056.09-.127.124-.165a.5.5 0 0 0-.062-.996c-.466 0-.714.352-.879.584-.198.281-.307.416-.62.416s-.422-.135-.621-.416c-.165-.232-.413-.584-.879-.584-.276 0-.542.212-.542.488 0 .275.183.487.459.487.03.023.096.117.145.186.084.119.202.264.346.404L10.191 16H7.809l-1.008-2.017c.991-.08 1.882-.516 1.923-.536a.5.5 0 0 0-.446-.895c-.01.005-.913.448-1.778.448-1.24 0-1.5-.815-1.5-1.5 0-.75.336-1.128.358-1.151a.5.5 0 0 0-.712-.702C4.58 9.713 4 10.327 4 11.5c0 .99.453 2.023 1.626 2.369l1.427 2.854A.5.5 0 0 0 7.5 17h3a.5.5 0 0 0 .447-.276L11.809 15h.382l.862 1.724A.5.5 0 0 0 13.5 17h3a.5.5 0 0 0 .447-.276l1.427-2.854C19.547 13.523 20 12.49 20 11.5c0-1.173-.58-1.787-.646-1.854a.497.497 0 0 0-.699-.002z"/><path fill="#303c42" d="M11.5 12.5a.5.5 0 0 0 .5-.5V9.5a.5.5 0 0 0-1 0V12a.5.5 0 0 0 .5.5z"/><radialGradient id="a" cx="-7.515" cy="7.098" r="1.573" gradientTransform="matrix(1.1341 0 0 .8576 15.406 5.261)" gradientUnits="userSpaceOnUse"><stop offset="0" stop-color="#ef8886" stop-opacity=".5"/><stop offset=".145" stop-color="#f0908e" stop-opacity=".427"/><stop offset=".376" stop-color="#f3a7a5" stop-opacity=".312"/><stop offset=".662" stop-color="#f8cbca" stop-opacity=".169"/><stop offset=".991" stop-color="#fffefe" stop-opacity=".004"/><stop offset="1" stop-color="#fff" stop-opacity="0"/></radialGradient><ellipse cx="6.883" cy="11.349" fill="url(#a)" rx="1.784" ry="1.349"/><radialGradient id="b" cx="1.542" cy="7.098" r="1.573" gradientTransform="matrix(1.1341 0 0 .8576 15.406 5.261)" gradientUnits="userSpaceOnUse"><stop offset="0" stop-color="#ef8886" stop-opacity=".5"/><stop offset=".145" stop-color="#f0908e" stop-opacity=".427"/><stop offset=".376" stop-color="#f3a7a5" stop-opacity=".312"/><stop offset=".662" stop-color="#f8cbca" stop-opacity=".169"/><stop offset=".991" stop-color="#fffefe" stop-opacity=".004"/><stop offset="1" stop-color="#fff" stop-opacity="0"/></radialGradient><ellipse cx="17.154" cy="11.349" fill="url(#b)" rx="1.784" ry="1.349"/><linearGradient id="c" x1="1.057" x2="21.472" y1="6.057" y2="15.577" gradientUnits="userSpaceOnUse"><stop offset="0" stop-color="#fff" stop-opacity=".2"/><stop offset="1" stop-color="#fff" stop-opacity="0"/></linearGradient><path fill="url(#c)" d="M20.776 2.441C19.211 1.529 15.99 0 12 0S4.789 1.529 3.224 2.441A2.493 2.493 0 0 0 2 4.592V13c0 3.899 4.516 9.365 9.242 9.924.143.456.298.775.31.799a.503.503 0 0 0 .895.001 6.07 6.07 0 0 0 .31-.799C17.484 22.365 22 16.899 22 13V4.592c0-.887-.469-1.71-1.224-2.151z"/></svg>